<svg xmlns="http://www.w3.org/2000/svg" width="40" height="40" viewBox="0 0 500 500" version="1.1"><path d="M 235 69.699 C 213.262 72.050, 188.167 79.620, 169.082 89.581 C 115.091 117.763, 78.898 169.170, 70.433 229.699 C 68.451 243.872, 68.936 272.743, 71.376 285.811 C 82.223 343.907, 116.846 391.366, 168.085 418.374 C 195.898 433.033, 221.385 439.218, 254 439.220 C 279.240 439.223, 296.762 436.252, 318.399 428.304 C 369.699 409.461, 411.482 366.930, 429.336 315.383 C 440.015 284.551, 442.415 248.245, 435.867 216.565 C 424.515 161.636, 388.333 114.446, 338 88.922 C 310.598 75.026, 283.994 68.825, 253.216 69.160 C 245.122 69.248, 236.925 69.490, 235 69.699 M 226.500 88.957 C 213.286 91.327, 205.298 93.481, 194.987 97.457 C 138.466 119.250, 99.102 167.300, 88.450 227.500 C 86.218 240.116, 86.233 265.530, 88.481 279.635 C 96.767 331.612, 127.574 375.813, 173.162 401.131 C 188.637 409.724, 210.750 417.326, 228.500 420.155 C 238.814 421.798, 269.186 421.798, 279.500 420.155 C 305.694 415.981, 332.718 404.639, 354.315 388.755 C 365.003 380.894, 381.998 363.703, 389.663 353 C 406.836 329.019, 416.730 304.101, 420.500 275.338 C 424.557 244.390, 419.173 211.140, 405.386 182.001 C 390.037 149.562, 359.602 118.851, 327.651 103.559 C 314.014 97.033, 299.263 92.245, 284.262 89.474 C 267.304 86.342, 242.328 86.118, 226.500 88.957 M 242.500 91.159 C 220.514 92.477, 200.800 97.995, 180 108.654 C 163.749 116.982, 151.083 126.115, 138.590 138.515 C 117.856 159.095, 102.497 185.893, 95.608 213.514 C 91.558 229.753, 90.720 238.417, 91.228 258.782 C 91.891 285.372, 95.945 302.498, 107.020 325.500 C 127.586 368.213, 166.973 400.646, 212.709 412.529 C 267.764 426.834, 325.658 411.798, 366.846 372.500 C 420.175 321.618, 433.018 243.112, 398.700 177.790 C 377.114 136.701, 339.007 106.733, 294.183 95.595 C 276.890 91.298, 261.800 90.003, 242.500 91.159 M 203.798 133.931 C 195.893 136.458, 190.101 140.058, 184.132 146.154 C 177.645 152.779, 176.612 155.968, 177.253 167.404 C 177.865 178.320, 180.705 186.561, 185.796 192.196 C 188.766 195.483, 193.687 199, 195.316 199 C 195.545 199, 195.074 196.188, 194.269 192.750 C 191.042 178.965, 194.608 164.915, 203.202 157.559 C 214.930 147.520, 233.591 149.238, 244.790 161.388 C 247.106 163.900, 249 165.590, 249 165.144 C 249 163.421, 256.736 156.680, 261.500 154.252 C 267.999 150.940, 277.933 150.108, 284.454 152.330 C 293.124 155.284, 299.532 161.975, 302.645 171.324 C 304.024 175.466, 304.032 175.435, 303.584 167.606 C 302.561 149.717, 290.149 136.286, 271.953 133.376 C 268.583 132.838, 266.745 133.316, 260.693 136.307 C 256.714 138.274, 252.394 141.016, 251.092 142.402 L 248.726 144.921 244.749 141.517 C 234.391 132.651, 217.555 129.532, 203.798 133.931 M 282.368 134.460 C 291.236 138.106, 296.843 143.382, 301.500 152.462 L 305.500 160.261 305.492 172.881 C 305.485 183.718, 305.176 186.168, 303.306 190.233 C 300.041 197.326, 295.993 202.098, 291.513 204.133 C 280.017 209.356, 268.354 202.913, 253.895 183.351 C 245.698 172.260, 240.040 166.682, 234.046 163.780 C 228.645 161.165, 219.591 160.320, 214.607 161.965 L 211.003 163.154 216.931 167.113 C 229.960 175.813, 244.257 194.670, 250.916 211.938 C 256.877 227.396, 258.882 247.556, 256.674 269.837 L 255.847 278.174 260.674 275.438 C 293.690 256.726, 309.264 241.814, 320.016 218.619 C 325.536 206.711, 327.397 198.387, 327.311 186 C 327.152 163.368, 316.708 144.906, 299.510 136.858 C 293.642 134.112, 284.625 131.989, 279 132.030 C 277.241 132.042, 278.240 132.763, 282.368 134.460 M 172.082 166.500 C 166.691 182.850, 168.652 202.409, 177.511 220.660 C 188.301 242.889, 204.761 258.312, 236.477 275.909 C 242.514 279.259, 247.861 282, 248.359 282 C 248.856 282, 249.015 280.150, 248.712 277.888 C 247.970 272.355, 244.487 268.944, 233.500 262.989 C 216.811 253.942, 207.710 244.726, 204.502 233.624 C 202.616 227.098, 203.598 223, 207.502 221.106 C 210.005 219.891, 211.227 219.933, 217.005 221.431 C 224.373 223.342, 229.556 222.697, 231.418 219.637 C 232.319 218.155, 231.831 217.281, 228.500 214.406 C 222.706 209.406, 211.631 204.205, 203 202.430 C 184.928 198.713, 177.277 189.078, 175.158 167.367 L 174.391 159.500 172.082 166.500 M 274.304 170.897 C 269.792 173.732, 267.667 177.447, 267.667 182.500 C 267.667 190.079, 273.730 195.993, 281.500 195.993 C 289.784 195.993, 295.797 188.980, 294.677 180.626 C 293.460 171.552, 281.984 166.071, 274.304 170.897 M 215.486 234.985 C 216.989 236.554, 220.757 239.186, 223.860 240.834 C 230.232 244.218, 241.952 248.381, 242.779 247.554 C 243.917 246.417, 240.963 242.032, 238.043 240.522 C 236.369 239.656, 232.720 238.516, 229.935 237.988 C 227.149 237.459, 222.144 235.926, 218.812 234.580 L 212.753 232.133 215.486 234.985 M 210.920 239.851 C 214.093 245.779, 229.174 256.897, 240.685 261.794 C 247.272 264.596, 248 264.562, 248 261.455 C 248 257.404, 244.246 254.673, 232.162 249.930 C 225.952 247.494, 218.642 243.813, 215.916 241.750 C 210.321 237.517, 209.505 237.207, 210.920 239.851 M 155.619 294.034 C 146.445 296.781, 141.942 309.167, 147.253 317.048 C 150.509 321.880, 155.199 324.286, 161.360 324.286 C 166.411 324.286, 172.136 322.207, 173.597 319.843 C 174.018 319.162, 173.160 317.674, 171.545 316.285 C 168.973 314.073, 168.639 314.016, 166.986 315.513 C 163.214 318.926, 155.729 317.048, 153.897 312.228 C 150.981 304.558, 158.646 297.697, 165.925 301.461 C 168.746 302.920, 169.202 302.914, 171.535 301.385 C 174.852 299.212, 174.341 297.980, 168.988 295.250 C 164.406 292.913, 160.539 292.561, 155.619 294.034 M 222.819 293.981 C 215.659 296.142, 212.016 301.261, 212.007 309.173 C 212.001 313.840, 212.465 315.399, 214.619 317.959 C 218.282 322.312, 222.612 324.286, 228.500 324.286 C 238.490 324.286, 244.500 318.477, 244.500 308.823 C 244.500 301.931, 242.349 298.505, 235.980 295.250 C 231.458 292.940, 227.526 292.561, 222.819 293.981 M 271.819 293.981 C 264.632 296.150, 261.016 301.256, 261.007 309.247 C 261.001 314.419, 261.352 315.383, 264.512 318.881 C 270.219 325.199, 279.126 326.362, 286.750 321.787 C 288.538 320.715, 290 319.508, 290 319.106 C 290 318.705, 288.713 317.425, 287.140 316.262 C 284.577 314.367, 284.123 314.306, 282.755 315.674 C 280.189 318.240, 273.933 317.624, 271.284 314.544 C 268.079 310.817, 268.314 306.532, 271.923 302.923 C 275.257 299.589, 277.946 299.265, 282.069 301.700 C 284.855 303.345, 285.025 303.325, 287.442 301.054 C 290.433 298.245, 290.033 297.373, 284.627 294.918 C 280.269 292.939, 276.247 292.645, 271.819 293.981 M 117 309 L 117 324 129.563 324 L 142.127 324 141.813 320.750 L 141.500 317.500 133.750 317.208 C 126.265 316.926, 126 316.832, 126 314.458 C 126 312.099, 126.263 312, 132.500 312 L 139 312 139 308.500 L 139 305 132.500 305 C 126.233 305, 126 304.910, 126 302.500 C 126 300.056, 126.167 300, 133.500 300 L 141 300 141 297 L 141 294 129 294 L 117 294 117 309 M 178 309 L 178 324 182.500 324 L 187 324 187 318 L 187 312 192.500 312 L 198 312 198 318 L 198 324 202.500 324 L 207 324 207 309 L 207 294 202.500 294 L 198 294 198 299.500 L 198 305 192.500 305 L 187 305 187 299.500 L 187 294 182.500 294 L 178 294 178 309 M 297.767 307.231 C 289.781 325.713, 290.065 324, 294.980 324 C 298.721 324, 299.296 323.676, 300.306 321 C 301.401 318.099, 301.649 318, 307.806 318 C 313.963 318, 314.211 318.099, 315.306 321 C 316.321 323.690, 316.881 324, 320.719 324 C 323.074 324, 324.991 323.663, 324.979 323.250 C 324.968 322.837, 322.137 316.200, 318.689 308.500 L 312.419 294.500 307.960 294.231 L 303.500 293.961 297.767 307.231 M 328 309 L 328 324 332 324 L 336 324 336 320 C 336 316.406, 336.252 316, 338.486 316 C 340.278 316, 341.710 317.116, 343.619 320 C 346.035 323.652, 346.646 324, 350.633 324 C 353.035 324, 354.987 323.663, 354.972 323.250 C 354.957 322.837, 353.633 320.768, 352.031 318.651 L 349.118 314.802 351.621 312.650 C 354.563 310.119, 355.850 303.458, 354.049 300.091 C 351.647 295.603, 347.245 294.008, 337.250 294.004 L 328 294 328 309 M 360 309 L 360 324 372 324 L 384 324 384 320.500 L 384 317 376 317 C 368.133 317, 368 316.958, 368 314.500 C 368 312.069, 368.196 312, 375.063 312 L 382.127 312 381.813 308.750 L 381.500 305.500 374.687 305.203 C 368.309 304.925, 367.893 304.765, 368.187 302.703 C 368.472 300.696, 369.146 300.474, 375.750 300.206 L 383 299.912 383 296.956 L 383 294 371.500 294 L 360 294 360 309 M 223.040 302.806 C 216.661 309.185, 220.965 317.726, 230.250 317.115 C 233.395 316.908, 236 313.281, 236 309.111 C 236 304.344, 233.595 301.218, 229.290 300.386 C 226.604 299.867, 225.584 300.262, 223.040 302.806 M 336.734 300.599 C 336.330 301.003, 336 303.083, 336 305.221 L 336 309.110 340.750 308.805 C 345.153 308.522, 345.524 308.290, 345.828 305.628 C 346.009 304.049, 345.784 302.396, 345.328 301.956 C 344.107 300.776, 337.587 299.747, 336.734 300.599 M 305.759 307.511 L 304.096 312 307.997 312 L 311.898 312 310.356 308.250 C 308.064 302.676, 307.580 302.598, 305.759 307.511 M 186.557 352.223 C 184.540 355.102, 184.594 356.323, 186.829 358.345 C 188.977 360.289, 192.107 360.493, 193.800 358.800 C 195.876 356.724, 195.101 355.598, 192.941 357.553 C 190.409 359.845, 187.500 358.480, 187.500 355 C 187.500 351.520, 190.409 350.155, 192.941 352.447 C 195.101 354.402, 195.876 353.276, 193.800 351.200 C 191.891 349.291, 188.250 349.805, 186.557 352.223 M 209.272 355 C 209.272 358.025, 209.467 359.488, 209.706 358.250 C 210.288 355.229, 215 355.007, 215 358 C 215 359.100, 215.450 360, 216 360 C 216.550 360, 217 357.750, 217 355 C 217 352.250, 216.550 350, 216 350 C 215.450 350, 215 350.900, 215 352 C 215 354.993, 210.288 354.771, 209.706 351.750 C 209.467 350.512, 209.272 351.975, 209.272 355 M 232.652 352.750 C 231.883 354.262, 230.921 356.625, 230.514 358 C 229.910 360.044, 230.015 360.272, 231.088 359.250 C 231.809 358.563, 233.398 358, 234.617 358 C 235.836 358, 237.034 358.563, 237.280 359.250 C 237.525 359.938, 238.018 360.232, 238.375 359.905 C 239.005 359.327, 235.336 350, 234.479 350 C 234.244 350, 233.422 351.238, 232.652 352.750 M 252.250 350.689 C 253.584 351.038, 254 352.198, 254 355.573 C 254 358.008, 254.450 360, 255 360 C 255.550 360, 256 358.008, 256 355.573 C 256 352.198, 256.416 351.038, 257.750 350.689 C 258.712 350.438, 257.475 350.232, 255 350.232 C 252.525 350.232, 251.287 350.438, 252.250 350.689 M 272 354.937 C 272 359.848, 272.086 360, 274.878 360 C 277.740 360, 280.564 357.897, 279.342 356.676 C 278.990 356.324, 278.657 354.790, 278.601 353.268 C 278.515 350.902, 278.029 350.455, 275.250 350.187 L 272 349.873 272 354.937 M 294.200 351.200 C 293.540 351.860, 293 353.570, 293 355 C 293 356.430, 293.540 358.140, 294.200 358.800 C 297.028 361.628, 303 359.049, 303 355 C 303 350.951, 297.028 348.372, 294.200 351.200 M 316.698 350.699 C 318.518 351.052, 318.959 351.930, 319.268 355.813 L 319.640 360.500 319.820 355.820 C 319.973 351.831, 320.333 351.075, 322.250 350.706 C 323.488 350.467, 322.250 350.272, 319.500 350.272 C 316.750 350.272, 315.489 350.464, 316.698 350.699 M 274 352.427 C 274 353.354, 274.855 354, 276.083 354 C 278.520 354, 278.176 351.663, 275.667 351.177 C 274.680 350.985, 274 351.495, 274 352.427 M 295.200 352.200 C 292.356 355.044, 295.138 359.726, 298.952 358.515 C 300.379 358.062, 301 357.009, 301 355.040 C 301 351.382, 297.655 349.745, 295.200 352.200 M 233.525 353.960 C 232.677 355.332, 233.428 356.362, 234.905 355.854 C 235.511 355.646, 235.588 354.940, 235.093 354.143 C 234.468 353.137, 234.063 353.090, 233.525 353.960 M 274 357.573 C 274 358.505, 274.680 359.015, 275.667 358.823 C 278.176 358.337, 278.520 356, 276.083 356 C 274.855 356, 274 356.646, 274 357.573" stroke="none" fill="#f8eded" fill-rule="evenodd"/><path d="M 0 250.002 L 0 500.004 250.250 499.752 L 500.500 499.500 500.752 249.750 L 501.004 0 250.502 0 L 0 0 0 250.002 M 0.492 250.500 C 0.492 388, 0.608 444.101, 0.750 375.170 C 0.892 306.238, 0.892 193.738, 0.750 125.170 C 0.608 56.601, 0.492 113, 0.492 250.500 M 235 69.699 C 213.262 72.050, 188.167 79.620, 169.082 89.581 C 115.091 117.763, 78.898 169.170, 70.433 229.699 C 68.451 243.872, 68.936 272.743, 71.376 285.811 C 82.223 343.907, 116.846 391.366, 168.085 418.374 C 195.898 433.033, 221.385 439.218, 254 439.220 C 279.240 439.223, 296.762 436.252, 318.399 428.304 C 369.699 409.461, 411.482 366.930, 429.336 315.383 C 440.015 284.551, 442.415 248.245, 435.867 216.565 C 424.515 161.636, 388.333 114.446, 338 88.922 C 310.598 75.026, 283.994 68.825, 253.216 69.160 C 245.122 69.248, 236.925 69.490, 235 69.699 M 226.500 88.957 C 213.286 91.327, 205.298 93.481, 194.987 97.457 C 138.466 119.250, 99.102 167.300, 88.450 227.500 C 86.218 240.116, 86.233 265.530, 88.481 279.635 C 96.767 331.612, 127.574 375.813, 173.162 401.131 C 188.637 409.724, 210.750 417.326, 228.500 420.155 C 238.814 421.798, 269.186 421.798, 279.500 420.155 C 305.694 415.981, 332.718 404.639, 354.315 388.755 C 365.003 380.894, 381.998 363.703, 389.663 353 C 406.836 329.019, 416.730 304.101, 420.500 275.338 C 424.557 244.390, 419.173 211.140, 405.386 182.001 C 390.037 149.562, 359.602 118.851, 327.651 103.559 C 314.014 97.033, 299.263 92.245, 284.262 89.474 C 267.304 86.342, 242.328 86.118, 226.500 88.957 M 242.500 91.159 C 220.514 92.477, 200.800 97.995, 180 108.654 C 163.749 116.982, 151.083 126.115, 138.590 138.515 C 117.856 159.095, 102.497 185.893, 95.608 213.514 C 91.558 229.753, 90.720 238.417, 91.228 258.782 C 91.891 285.372, 95.945 302.498, 107.020 325.500 C 127.586 368.213, 166.973 400.646, 212.709 412.529 C 267.764 426.834, 325.658 411.798, 366.846 372.500 C 420.175 321.618, 433.018 243.112, 398.700 177.790 C 377.114 136.701, 339.007 106.733, 294.183 95.595 C 276.890 91.298, 261.800 90.003, 242.500 91.159 M 203.798 133.931 C 195.893 136.458, 190.101 140.058, 184.132 146.154 C 177.645 152.779, 176.612 155.968, 177.253 167.404 C 177.865 178.320, 180.705 186.561, 185.796 192.196 C 188.766 195.483, 193.687 199, 195.316 199 C 195.545 199, 195.074 196.188, 194.269 192.750 C 191.042 178.965, 194.608 164.915, 203.202 157.559 C 214.930 147.520, 233.591 149.238, 244.790 161.388 C 247.106 163.900, 249 165.590, 249 165.144 C 249 163.421, 256.736 156.680, 261.500 154.252 C 267.999 150.940, 277.933 150.108, 284.454 152.330 C 293.124 155.284, 299.532 161.975, 302.645 171.324 C 304.024 175.466, 304.032 175.435, 303.584 167.606 C 302.561 149.717, 290.149 136.286, 271.953 133.376 C 268.583 132.838, 266.745 133.316, 260.693 136.307 C 256.714 138.274, 252.394 141.016, 251.092 142.402 L 248.726 144.921 244.749 141.517 C 234.391 132.651, 217.555 129.532, 203.798 133.931 M 282.368 134.460 C 291.236 138.106, 296.843 143.382, 301.500 152.462 L 305.500 160.261 305.492 172.881 C 305.485 183.718, 305.176 186.168, 303.306 190.233 C 300.041 197.326, 295.993 202.098, 291.513 204.133 C 280.017 209.356, 268.354 202.913, 253.895 183.351 C 245.698 172.260, 240.040 166.682, 234.046 163.780 C 228.645 161.165, 219.591 160.320, 214.607 161.965 L 211.003 163.154 216.931 167.113 C 229.960 175.813, 244.257 194.670, 250.916 211.938 C 256.877 227.396, 258.882 247.556, 256.674 269.837 L 255.847 278.174 260.674 275.438 C 293.690 256.726, 309.264 241.814, 320.016 218.619 C 325.536 206.711, 327.397 198.387, 327.311 186 C 327.152 163.368, 316.708 144.906, 299.510 136.858 C 293.642 134.112, 284.625 131.989, 279 132.030 C 277.241 132.042, 278.240 132.763, 282.368 134.460 M 172.082 166.500 C 166.691 182.850, 168.652 202.409, 177.511 220.660 C 188.301 242.889, 204.761 258.312, 236.477 275.909 C 242.514 279.259, 247.861 282, 248.359 282 C 248.856 282, 249.015 280.150, 248.712 277.888 C 247.970 272.355, 244.487 268.944, 233.500 262.989 C 216.811 253.942, 207.710 244.726, 204.502 233.624 C 202.616 227.098, 203.598 223, 207.502 221.106 C 210.005 219.891, 211.227 219.933, 217.005 221.431 C 224.373 223.342, 229.556 222.697, 231.418 219.637 C 232.319 218.155, 231.831 217.281, 228.500 214.406 C 222.706 209.406, 211.631 204.205, 203 202.430 C 184.928 198.713, 177.277 189.078, 175.158 167.367 L 174.391 159.500 172.082 166.500 M 274.304 170.897 C 269.792 173.732, 267.667 177.447, 267.667 182.500 C 267.667 190.079, 273.730 195.993, 281.500 195.993 C 289.784 195.993, 295.797 188.980, 294.677 180.626 C 293.460 171.552, 281.984 166.071, 274.304 170.897 M 215.486 234.985 C 216.989 236.554, 220.757 239.186, 223.860 240.834 C 230.232 244.218, 241.952 248.381, 242.779 247.554 C 243.917 246.417, 240.963 242.032, 238.043 240.522 C 236.369 239.656, 232.720 238.516, 229.935 237.988 C 227.149 237.459, 222.144 235.926, 218.812 234.580 L 212.753 232.133 215.486 234.985 M 210.920 239.851 C 214.093 245.779, 229.174 256.897, 240.685 261.794 C 247.272 264.596, 248 264.562, 248 261.455 C 248 257.404, 244.246 254.673, 232.162 249.930 C 225.952 247.494, 218.642 243.813, 215.916 241.750 C 210.321 237.517, 209.505 237.207, 210.920 239.851 M 155.619 294.034 C 146.445 296.781, 141.942 309.167, 147.253 317.048 C 150.509 321.880, 155.199 324.286, 161.360 324.286 C 166.411 324.286, 172.136 322.207, 173.597 319.843 C 174.018 319.162, 173.160 317.674, 171.545 316.285 C 168.973 314.073, 168.639 314.016, 166.986 315.513 C 163.214 318.926, 155.729 317.048, 153.897 312.228 C 150.981 304.558, 158.646 297.697, 165.925 301.461 C 168.746 302.920, 169.202 302.914, 171.535 301.385 C 174.852 299.212, 174.341 297.980, 168.988 295.250 C 164.406 292.913, 160.539 292.561, 155.619 294.034 M 222.819 293.981 C 215.659 296.142, 212.016 301.261, 212.007 309.173 C 212.001 313.840, 212.465 315.399, 214.619 317.959 C 218.282 322.312, 222.612 324.286, 228.500 324.286 C 238.490 324.286, 244.500 318.477, 244.500 308.823 C 244.500 301.931, 242.349 298.505, 235.980 295.250 C 231.458 292.940, 227.526 292.561, 222.819 293.981 M 271.819 293.981 C 264.632 296.150, 261.016 301.256, 261.007 309.247 C 261.001 314.419, 261.352 315.383, 264.512 318.881 C 270.219 325.199, 279.126 326.362, 286.750 321.787 C 288.538 320.715, 290 319.508, 290 319.106 C 290 318.705, 288.713 317.425, 287.140 316.262 C 284.577 314.367, 284.123 314.306, 282.755 315.674 C 280.189 318.240, 273.933 317.624, 271.284 314.544 C 268.079 310.817, 268.314 306.532, 271.923 302.923 C 275.257 299.589, 277.946 299.265, 282.069 301.700 C 284.855 303.345, 285.025 303.325, 287.442 301.054 C 290.433 298.245, 290.033 297.373, 284.627 294.918 C 280.269 292.939, 276.247 292.645, 271.819 293.981 M 117 309 L 117 324 129.563 324 L 142.127 324 141.813 320.750 L 141.500 317.500 133.750 317.208 C 126.265 316.926, 126 316.832, 126 314.458 C 126 312.099, 126.263 312, 132.500 312 L 139 312 139 308.500 L 139 305 132.500 305 C 126.233 305, 126 304.910, 126 302.500 C 126 300.056, 126.167 300, 133.500 300 L 141 300 141 297 L 141 294 129 294 L 117 294 117 309 M 178 309 L 178 324 182.500 324 L 187 324 187 318 L 187 312 192.500 312 L 198 312 198 318 L 198 324 202.500 324 L 207 324 207 309 L 207 294 202.500 294 L 198 294 198 299.500 L 198 305 192.500 305 L 187 305 187 299.500 L 187 294 182.500 294 L 178 294 178 309 M 297.767 307.231 C 289.781 325.713, 290.065 324, 294.980 324 C 298.721 324, 299.296 323.676, 300.306 321 C 301.401 318.099, 301.649 318, 307.806 318 C 313.963 318, 314.211 318.099, 315.306 321 C 316.321 323.690, 316.881 324, 320.719 324 C 323.074 324, 324.991 323.663, 324.979 323.250 C 324.968 322.837, 322.137 316.200, 318.689 308.500 L 312.419 294.500 307.960 294.231 L 303.500 293.961 297.767 307.231 M 328 309 L 328 324 332 324 L 336 324 336 320 C 336 316.406, 336.252 316, 338.486 316 C 340.278 316, 341.710 317.116, 343.619 320 C 346.035 323.652, 346.646 324, 350.633 324 C 353.035 324, 354.987 323.663, 354.972 323.250 C 354.957 322.837, 353.633 320.768, 352.031 318.651 L 349.118 314.802 351.621 312.650 C 354.563 310.119, 355.850 303.458, 354.049 300.091 C 351.647 295.603, 347.245 294.008, 337.250 294.004 L 328 294 328 309 M 360 309 L 360 324 372 324 L 384 324 384 320.500 L 384 317 376 317 C 368.133 317, 368 316.958, 368 314.500 C 368 312.069, 368.196 312, 375.063 312 L 382.127 312 381.813 308.750 L 381.500 305.500 374.687 305.203 C 368.309 304.925, 367.893 304.765, 368.187 302.703 C 368.472 300.696, 369.146 300.474, 375.750 300.206 L 383 299.912 383 296.956 L 383 294 371.500 294 L 360 294 360 309 M 223.040 302.806 C 216.661 309.185, 220.965 317.726, 230.250 317.115 C 233.395 316.908, 236 313.281, 236 309.111 C 236 304.344, 233.595 301.218, 229.290 300.386 C 226.604 299.867, 225.584 300.262, 223.040 302.806 M 336.734 300.599 C 336.330 301.003, 336 303.083, 336 305.221 L 336 309.110 340.750 308.805 C 345.153 308.522, 345.524 308.290, 345.828 305.628 C 346.009 304.049, 345.784 302.396, 345.328 301.956 C 344.107 300.776, 337.587 299.747, 336.734 300.599 M 305.759 307.511 L 304.096 312 307.997 312 L 311.898 312 310.356 308.250 C 308.064 302.676, 307.580 302.598, 305.759 307.511 M 186.557 352.223 C 184.540 355.102, 184.594 356.323, 186.829 358.345 C 188.977 360.289, 192.107 360.493, 193.800 358.800 C 195.876 356.724, 195.101 355.598, 192.941 357.553 C 190.409 359.845, 187.500 358.480, 187.500 355 C 187.500 351.520, 190.409 350.155, 192.941 352.447 C 195.101 354.402, 195.876 353.276, 193.800 351.200 C 191.891 349.291, 188.250 349.805, 186.557 352.223 M 209.272 355 C 209.272 358.025, 209.467 359.488, 209.706 358.250 C 210.288 355.229, 215 355.007, 215 358 C 215 359.100, 215.450 360, 216 360 C 216.550 360, 217 357.750, 217 355 C 217 352.250, 216.550 350, 216 350 C 215.450 350, 215 350.900, 215 352 C 215 354.993, 210.288 354.771, 209.706 351.750 C 209.467 350.512, 209.272 351.975, 209.272 355 M 232.652 352.750 C 231.883 354.262, 230.921 356.625, 230.514 358 C 229.910 360.044, 230.015 360.272, 231.088 359.250 C 231.809 358.563, 233.398 358, 234.617 358 C 235.836 358, 237.034 358.563, 237.280 359.250 C 237.525 359.938, 238.018 360.232, 238.375 359.905 C 239.005 359.327, 235.336 350, 234.479 350 C 234.244 350, 233.422 351.238, 232.652 352.750 M 252.250 350.689 C 253.584 351.038, 254 352.198, 254 355.573 C 254 358.008, 254.450 360, 255 360 C 255.550 360, 256 358.008, 256 355.573 C 256 352.198, 256.416 351.038, 257.750 350.689 C 258.712 350.438, 257.475 350.232, 255 350.232 C 252.525 350.232, 251.287 350.438, 252.250 350.689 M 272 354.937 C 272 359.848, 272.086 360, 274.878 360 C 277.740 360, 280.564 357.897, 279.342 356.676 C 278.990 356.324, 278.657 354.790, 278.601 353.268 C 278.515 350.902, 278.029 350.455, 275.250 350.187 L 272 349.873 272 354.937 M 294.200 351.200 C 293.540 351.860, 293 353.570, 293 355 C 293 356.430, 293.540 358.140, 294.200 358.800 C 297.028 361.628, 303 359.049, 303 355 C 303 350.951, 297.028 348.372, 294.200 351.200 M 316.698 350.699 C 318.518 351.052, 318.959 351.930, 319.268 355.813 L 319.640 360.500 319.820 355.820 C 319.973 351.831, 320.333 351.075, 322.250 350.706 C 323.488 350.467, 322.250 350.272, 319.500 350.272 C 316.750 350.272, 315.489 350.464, 316.698 350.699 M 274 352.427 C 274 353.354, 274.855 354, 276.083 354 C 278.520 354, 278.176 351.663, 275.667 351.177 C 274.680 350.985, 274 351.495, 274 352.427 M 295.200 352.200 C 292.356 355.044, 295.138 359.726, 298.952 358.515 C 300.379 358.062, 301 357.009, 301 355.040 C 301 351.382, 297.655 349.745, 295.200 352.200 M 233.525 353.960 C 232.677 355.332, 233.428 356.362, 234.905 355.854 C 235.511 355.646, 235.588 354.940, 235.093 354.143 C 234.468 353.137, 234.063 353.090, 233.525 353.960 M 274 357.573 C 274 358.505, 274.680 359.015, 275.667 358.823 C 278.176 358.337, 278.520 356, 276.083 356 C 274.855 356, 274 356.646, 274 357.573" stroke="none" fill="#05848c" fill-rule="evenodd"/></svg>